<?xml version="1.0" standalone="no"?>
<!DOCTYPE svg PUBLIC "-//W3C//DTD SVG 20010904//EN"
 "http://www.w3.org/TR/2001/REC-SVG-20010904/DTD/svg10.dtd">
<svg version="1.0" xmlns="http://www.w3.org/2000/svg"
 width="300.000000pt" height="300.000000pt" viewBox="0 0 300.000000 300.000000"
 preserveAspectRatio="xMidYMid meet">
<metadata>
Created by potrace 1.10, written by Peter Selinger 2001-2011
</metadata>
<g transform="translate(0.000000,300.000000) scale(0.100000,-0.100000)"
fill="#000000" stroke="none">
<path d="M1527 2010 c-9 -6 -23 -8 -30 -4 -6 4 -9 4 -5 -1 5 -5 -10 -16 -32
-26 -61 -27 -124 -100 -176 -203 -25 -50 -54 -107 -64 -126 -10 -19 -28 -57
-41 -85 -13 -27 -28 -57 -35 -65 -7 -8 -12 -17 -12 -20 0 -3 -12 -31 -26 -62
-15 -32 -29 -71 -33 -88 -3 -17 -9 -32 -13 -35 -18 -11 12 -168 37 -193 7 -7
13 -25 13 -40 0 -34 34 -103 65 -132 26 -24 62 -21 51 5 -3 8 -8 21 -11 28 -4
9 10 12 51 13 44 1 58 6 70 23 9 12 20 18 26 15 6 -4 8 -2 4 4 -3 5 -3 12 1
14 5 1 30 46 57 98 27 52 52 99 56 103 4 5 44 10 90 12 62 4 85 9 95 21 10 14
8 21 -8 41 -19 21 -28 23 -119 23 l-98 0 -23 -37 c-12 -21 -40 -74 -62 -118
-21 -44 -43 -85 -49 -91 -19 -18 -55 -34 -59 -27 -8 14 -6 77 2 83 5 3 10 31
13 63 3 32 1 54 -3 50 -17 -18 -39 -108 -39 -158 0 -50 2 -55 26 -61 42 -11
74 24 142 155 l64 121 91 0 c81 0 94 -2 105 -20 12 -19 10 -20 -82 -20 l-94 0
-64 -122 c-55 -106 -69 -126 -101 -141 -43 -21 -83 -13 -124 25 -13 12 -23 19
-23 16 0 -17 33 -95 47 -110 9 -10 12 -18 6 -18 -24 0 -73 83 -73 124 0 13
-11 46 -26 73 -14 27 -28 75 -31 106 -8 75 10 123 153 407 125 248 160 296
251 337 46 21 66 25 126 21 87 -4 146 -31 199 -91 22 -25 38 -36 38 -27 0 26
-72 92 -127 116 -59 26 -169 40 -196 24z"/>
<path d="M1579 1959 c-64 -10 -111 -34 -159 -81 -32 -30 -71 -99 -168 -296
-112 -228 -127 -264 -130 -317 -4 -68 20 -156 33 -120 25 74 75 182 187 407
113 228 132 261 167 283 43 29 111 45 111 26 0 -7 4 -10 8 -7 5 3 6 -9 4 -26
-4 -29 -3 -30 20 -25 22 6 26 3 26 -19 0 -18 -5 -24 -15 -20 -8 3 -13 3 -11
-1 15 -30 108 -223 139 -291 l39 -83 -170 2 c-114 2 -169 6 -166 13 31 79 40
96 47 96 12 0 12 0 -12 -49 -11 -24 -19 -45 -16 -47 2 -2 14 19 27 47 l24 51
48 -4 c26 -2 48 0 48 3 0 3 -23 56 -52 117 l-52 111 -27 -57 c-18 -36 -24 -61
-18 -67 24 -24 -10 -74 -43 -63 -12 4 -190 -346 -202 -397 l-7 -30 23 35 c13
19 23 37 23 40 0 3 36 76 80 163 70 140 83 161 114 175 32 15 36 22 37 58 0
22 5 48 11 59 10 16 15 11 42 -43 37 -74 38 -81 6 -74 -15 2 -25 0 -25 -7 0
-6 -11 -11 -24 -11 -43 0 -86 -101 -54 -128 9 -7 58 -12 126 -13 100 -1 111
-3 103 -18 -6 -10 -4 -28 4 -49 8 -17 11 -32 7 -32 -4 0 -2 -4 3 -8 6 -4 18
-24 27 -44 10 -22 25 -39 35 -39 10 -1 33 -3 52 -5 78 -6 98 24 61 93 -11 21
-20 44 -20 51 0 8 -11 23 -25 34 -14 11 -25 30 -25 44 0 23 -14 57 -97 232
-19 41 -32 80 -29 87 3 8 1 17 -4 20 -6 4 -10 22 -10 41 0 23 -6 38 -20 46
-11 7 -20 21 -20 30 0 10 -7 18 -16 18 -8 0 -13 4 -10 9 3 4 -16 8 -43 8 -41
0 -57 -6 -97 -36 -44 -33 -58 -55 -141 -221 -51 -102 -97 -196 -102 -210 -6
-14 -17 -36 -24 -50 -27 -47 -71 -145 -69 -153 1 -5 -2 -5 -9 -2 -26 17 15
159 69 235 13 19 14 22 2 15 -11 -6 -11 -4 2 11 9 10 18 26 20 34 2 8 5 17 8
20 3 3 38 70 78 149 40 79 87 158 105 176 53 54 122 85 193 85 33 0 64 -3 68
-7 3 -4 14 -8 24 -9 9 -2 18 -8 20 -13 2 -6 10 -11 18 -11 9 0 12 -5 8 -12 -4
-7 -3 -10 1 -5 5 4 19 -3 32 -15 33 -31 39 -16 8 20 -48 57 -137 85 -226 71z
m302 -684 c20 -41 35 -76 33 -77 -1 -2 -29 -2 -61 0 l-59 4 -30 66 c-16 36
-30 70 -32 74 -2 4 23 8 55 8 l59 0 35 -75z"/>
<path d="M1630 1660 c0 -5 5 -10 11 -10 5 0 7 5 4 10 -3 6 -8 10 -11 10 -2 0
-4 -4 -4 -10z"/>
<path d="M1431 1564 c0 -11 3 -14 6 -6 3 7 2 16 -1 19 -3 4 -6 -2 -5 -13z"/>
<path d="M1770 1436 c0 -17 14 -29 23 -20 8 8 -3 34 -14 34 -5 0 -9 -6 -9 -14z"/>
<path d="M1232 1278 c-15 -18 -40 -86 -51 -137 -7 -32 -6 -51 2 -65 10 -18 13
-10 17 54 4 47 14 92 27 118 21 44 23 51 5 30z"/>
<path d="M2623 149 c-6 -6 -7 -25 -4 -42 l7 -32 67 0 c37 1 67 -2 67 -6 0 -4
15 -4 33 1 18 4 49 6 68 4 59 -4 70 3 67 44 -3 32 -7 37 -31 40 -16 2 -38 -3
-51 -11 -15 -10 -27 -12 -39 -5 -9 5 -17 6 -17 2 0 -3 -7 -1 -15 6 -11 9 -18
10 -28 1 -8 -6 -17 -8 -21 -4 -11 11 -92 13 -103 2z m31 -15 c6 -15 8 -15 26
1 19 18 20 17 21 -6 0 -13 3 -18 6 -11 7 19 33 14 33 -6 0 -26 -11 -34 -27
-21 -10 9 -13 8 -13 0 0 -7 -5 -9 -11 -6 -6 4 -8 14 -4 22 4 12 3 13 -8 5 -8
-7 -17 -9 -20 -5 -4 3 -7 -1 -7 -10 0 -9 -4 -17 -10 -17 -5 0 -10 16 -10 35 0
37 13 47 24 19z m216 -15 c-13 -9 -12 -10 3 -5 11 3 17 0 17 -10 0 -8 -5 -12
-10 -9 -6 4 -17 1 -25 -5 -18 -15 -18 -12 -4 29 9 24 14 30 23 21 8 -8 7 -14
-4 -21z m50 1 c0 -16 -4 -30 -10 -30 -5 0 -10 14 -10 30 0 17 5 30 10 30 6 0
10 -13 10 -30z m-148 -3 c-2 -11 3 -14 19 -10 16 4 17 8 7 14 -10 7 -9 9 5 9
16 0 26 -39 10 -41 -47 -8 -58 -3 -61 25 -3 20 0 27 10 24 7 -3 12 -12 10 -21z"/>
</g>
</svg>
